<?xml version="1.0" encoding="utf-8"?>
<!-- Generator: Adobe Illustrator 21.0.2, SVG Export Plug-In . SVG Version: 6.00 Build 0)  -->
<svg version="1.1" id="Calque_1" xmlns="http://www.w3.org/2000/svg" xmlns:xlink="http://www.w3.org/1999/xlink" x="0px" y="0px"
	 viewBox="0 0 141.7 70.9" style="enable-background:new 0 0 141.7 70.9;" xml:space="preserve">
<style type="text/css">
	.st0{fill:#FFFFFF;}
</style>
<g>
	<path class="st0" d="M45.7,24.8c0,0.2-0.1,0.5-0.3,0.9c-0.6,1.2-1,2.1-1.2,2.6c-0.1,0.2-0.1,0.3-0.3,0.3c-0.1,0-0.2-0.1-0.2-0.2
		c0,0,0-0.2,0.1-0.5c0.1-0.3,0.1-0.6,0.1-1c0-0.9-0.2-1.6-0.7-2.1c-0.4-0.5-1.1-0.8-1.8-0.8c-1.8,0-3.4,1-4.6,3
		c-1.4,2.2-2.1,4.5-2.1,6.9c0,2.6,0.9,3.9,2.8,3.9c0.7,0,1.3-0.2,1.9-0.5c1.1-0.6,1.8-1.3,2.3-2.2c0.2-0.3,0.3-0.5,0.5-0.5
		c0.1,0,0.1,0.1,0.1,0.2c0,0.3-0.4,0.9-1.2,1.7c-1.4,1.4-2.9,2.2-4.7,2.2c-1.2,0-2.2-0.4-2.9-1.2c-0.7-0.8-1.1-1.9-1.1-3.3
		c0-2.6,0.9-5,2.8-7.3c1.9-2.2,3.9-3.3,6.2-3.3c0.6,0,1.1,0.1,1.6,0.3c0.3,0.2,0.7,0.5,1.3,1c0.1,0.1,0.3,0.2,0.4,0.2
		c0.2,0,0.3-0.1,0.5-0.4l0.2-0.1C45.7,24.7,45.7,24.7,45.7,24.8z"/>
	<path class="st0" d="M53.8,29.6c0,0-0.1,0.2-0.2,0.4l-2.8,6.3c-0.3,0.6-0.4,1.1-0.4,1.4c0,0.4,0.2,0.5,0.5,0.5
		c0.5,0,1.1-0.4,1.6-1.1c0.1-0.2,0.2-0.2,0.3-0.2L53,37c0,0.2-0.2,0.4-0.5,0.7c-0.6,0.7-1.4,1-2.2,1c-0.4,0-0.8-0.1-1.1-0.3
		c-0.3-0.2-0.4-0.5-0.4-0.8c0-0.2,0-0.5,0.1-0.7c-0.9,1.3-1.9,1.9-3.1,1.9c-0.7,0-1.3-0.2-1.8-0.7c-0.5-0.5-0.7-1.1-0.7-1.8
		c0-0.8,0.3-1.7,0.8-2.6s1.2-1.8,2.1-2.6c1.2-1.1,2.3-1.6,3.3-1.6c1.1,0,1.6,0.5,1.8,1.5l0.5-1.1c0.1-0.2,0.2-0.3,0.3-0.3
		c0,0,0.1,0,0.3,0c0.1,0,0.2,0,0.3,0c0.3,0,0.5,0,0.7-0.1l0.1,0C53.8,29.4,53.8,29.5,53.8,29.6z M51.2,31.3c0-0.4-0.1-0.8-0.4-1
		c-0.3-0.3-0.6-0.4-1-0.4c-0.7,0-1.4,0.4-2,1.2C47,32,46.4,33,46,34.1c-0.4,1-0.7,1.9-0.7,2.7c0,0.9,0.4,1.4,1.2,1.4
		c0.4,0,0.9-0.2,1.5-0.7s1-1.1,1.3-1.8l1.6-3.5C51.1,31.7,51.2,31.5,51.2,31.3z"/>
	<path class="st0" d="M64.2,25c0,0.5-0.3,0.8-0.8,0.8c-0.2,0-0.3-0.1-0.5-0.2c-0.1-0.1-0.2-0.3-0.2-0.4c0-0.1,0.1-0.3,0.3-0.5
		c0.1-0.1,0.1-0.2,0.1-0.3c0-0.4-0.3-0.5-0.9-0.5c-0.6,0-1.1,0.3-1.5,0.8c-0.4,0.5-0.9,1.6-1.4,3.2l-0.6,1.6l2.2,0
		c0.1,0,0.2,0,0.3,0c0.2,0,0.2,0.1,0.2,0.2s-0.1,0.2-0.3,0.2l-2.5,0l-1.8,5c-1.3,3.6-2.6,6.1-3.8,7.5c-0.5,0.6-1,1-1.4,1.2
		c-0.4,0.2-0.9,0.3-1.5,0.3c-1.2,0-1.8-0.4-1.8-1.2c0-0.6,0.3-0.9,0.9-0.9c0.4,0,0.6,0.2,0.6,0.5c0,0.1-0.1,0.3-0.2,0.4
		c-0.1,0.1-0.1,0.2-0.1,0.3c0,0.3,0.2,0.5,0.6,0.5c0.7,0,1.4-0.4,1.9-1.1c0.4-0.6,0.9-1.8,1.6-3.7l3.2-9.1l-0.5,0l-1,0
		C55.1,30,55,30,54.9,30c-0.2,0-0.3-0.1-0.3-0.2c0-0.2,0.2-0.3,0.5-0.4c0,0,0.3,0,0.8,0l0.8,0H57c0.8-2,1.5-3.4,2.1-4.1
		c0.9-1.2,2-1.8,3.3-1.8c0.6,0,1,0.1,1.4,0.4C64,24.2,64.2,24.6,64.2,25z"/>
	<path class="st0" d="M67.9,30.9c0,0.8-0.4,1.4-1.2,1.9c-0.8,0.5-1.8,0.7-3.1,0.7c-0.4,0-0.9,0-1.5-0.1c-0.5,1.1-0.8,2.1-0.8,3
		c0,1.2,0.6,1.9,1.7,1.9c0.9,0,1.7-0.4,2.5-1.3c0.2-0.2,0.3-0.3,0.4-0.3l0.1,0.1c0,0.3-0.3,0.7-1,1.2c-0.8,0.5-1.5,0.8-2.4,0.8
		c-0.9,0-1.7-0.3-2.2-0.8s-0.9-1.2-0.9-2c0-1.6,0.9-3.1,2.6-4.5c1.5-1.3,2.8-1.9,4-1.9C67.3,29.4,67.9,29.9,67.9,30.9z M66.4,30.5
		c0-0.4-0.2-0.7-0.7-0.7c-0.4,0-0.9,0.2-1.3,0.5c-0.8,0.6-1.5,1.5-2.2,2.8c0.2,0,0.4,0,0.6,0c0.8,0,1.5-0.2,2.3-0.7
		C66,31.9,66.4,31.3,66.4,30.5z M69.6,24.4c0,0.1-0.1,0.2-0.4,0.4l-3,2.2c-0.8,0.6-1.2,0.9-1.3,0.9l-0.1,0l0-0.1l0.1-0.1l2.7-3.3
		l1.6,0C69.5,24.2,69.6,24.3,69.6,24.4z"/>
	<path class="st0" d="M71.5,37.4c0,0.4-0.1,0.6-0.3,0.9c-0.2,0.2-0.5,0.3-0.9,0.3c-0.7,0-1-0.3-1-1c0-0.4,0.1-0.6,0.3-0.9
		c0.2-0.2,0.5-0.3,0.9-0.3C71.2,36.4,71.5,36.8,71.5,37.4z"/>
	<path class="st0" d="M76.2,26.1c-0.4,0.1-0.8-0.2-1-0.6c1.8-0.5,4.3-0.8,6.3-1.1c0.6-0.1,0.8-0.2,1.1-0.8c0.6-1.1,1.3-2.3,1.9-3.4
		c0.1-0.2,0.3-0.4,0.4-0.6c0.6,0.4,0.7,0.5,0.4,0.9c-0.7,1.3-1.5,2.5-2.1,3.7c2.9-0.3,5.7-0.5,8.4-0.2c0.6,0.1,0.7,0.2,0.9,0.7
		l-0.3,0c-2.5-0.4-7.6,0.1-9.6,0.5c-2.5,5-4.1,11.5-4.5,15.2c0,0.1,0,0.3-0.1,0.5c-0.6,0-0.7-0.4-0.7-0.7c0.1-3,1.6-9.4,4.2-15
		C79.9,25.5,78,25.6,76.2,26.1z"/>
	<path class="st0" d="M80.5,38.1c-0.3-1,0.3-2.8,0.8-3.7c0.1-0.2,0.2-0.5,0.2-0.7c0.1-1,0.4-1.9,1.2-2.5c0.6-0.5,1.2-0.7,1.9-0.4
		c0.7,0.3,1.1,0.9,1.1,1.7c0.1,1.2-0.2,2.4-0.6,3.6c0.5-0.3,0.9-0.6,1.2-1c0.2-0.2,0.5-0.1,0.7,0.2c-0.5,0.9-1.5,1.5-2.5,1.9
		c-0.2,0.3-0.4,0.6-0.6,0.8c-0.5,0.6-1.1,1.2-1.8,1.3C81.4,39.4,80.7,38.9,80.5,38.1z M81.9,35.6c-0.5,1-0.6,1.9-0.4,3
		c0.8-0.1,1.4-0.7,1.9-1.5C82.7,36.9,82.2,36.3,81.9,35.6z M85,32.4c0-2.1-1.7-0.9-2.3,0c-0.6,1.2-0.6,4,1.3,3.9
		C84.6,35.1,85,33.8,85,32.4z"/>
	<path class="st0" d="M94.9,35.2c-0.6,0.8-1.9,3-2.8,4c-0.5,0.5-1.6-0.1-1.5-1c0-1,1.3-5,2.1-7.3c-0.6,0.4-4.2,5.6-5.8,7.8
		c-0.3,0.4-0.6,0.4-1,0.1c-0.5-0.4-0.5-0.9-0.4-1.4c0.5-2.1,1.6-4.6,2.3-5.9c0.4-0.8,0.7-0.8,1.3-0.1c-1.2,1.7-2.6,5.8-2.5,6.5
		c1.5-2.1,5-6.8,5.8-7.6c0.5-0.3,1.2-0.1,1.3,0.8c0,0.2,0,0.4-0.1,0.5c-0.7,2.2-2.1,6.5-2,7.3c0.8-1,2-3.2,2.4-3.7
		C94.3,34.8,94.6,34.9,94.9,35.2z"/>
	<path class="st0" d="M95.4,39.6c-1-0.2-1.8-1.2-1.8-2.2c-0.2-2.2,2.3-5,4-6c0.5-0.2,0.9-0.4,1.5,0c0.7,0.6,0.8,1.4,0.3,2.1
		c-0.8,1-3.2,2.2-4.5,2.2c-0.1,0.2-0.2,0.4-0.2,0.5c-0.2,0.9-0.3,2.6,0.6,2.8c0.5,0.1,1.1-0.1,1.6-0.5c1.3-0.8,2.6-1.7,3.9-3.4
		c0.2-0.4,0.5-0.3,0.8,0.1c-1.3,1.7-2.5,2.9-4.2,3.9C96.6,39.6,95.9,39.7,95.4,39.6z M95.3,34.9c1.3-0.2,3.7-1.6,3.4-3
		C97.2,32.8,96.1,33.6,95.3,34.9z"/>
	<path class="st0" d="M102.9,33.7c-0.5,0.6-0.9,1.2-1.2,1.5c-0.2,0.4-0.5,0.4-0.7,0.1l-0.1-0.1c0.5-0.6,0.9-1.2,1.3-1.8
		c-0.9-0.7-1.3-1.8-0.4-2.6c0.6-0.8,2.9-2.2,3.5-0.8c0.1,0.3-1.2,2.4-2,3.4c1.7,0.9,3.3,2,3.9,3.3c0.5-0.3,1-0.8,1.8-1.5
		c0.2-0.4,0.5-0.3,0.8,0.1c-0.5,0.6-1.5,1.5-2.5,2.1c0.6,3.5-2.8,6.8-5.8,7.1c-1.4,0.1-2.3-1.1-1.7-2.4c1.3-2.8,4.2-3.8,6.6-4.9
		C105.9,35.4,104.3,34.4,102.9,33.7z M100.2,43c-0.1,0.4,0.1,0.7,0.6,0.7c2.5-0.2,6-3.2,5.7-5.9c-2,0.9-3.1,1.4-4.1,2.2
		C101.4,40.8,100.5,41.9,100.2,43z M102.5,32.9c0.6-0.8,2-2.9,1.7-3C103.6,30.2,100.8,31.9,102.5,32.9z"/>
	<path class="st0" d="M121.9,54.3c1.1-13,1.3-26,0.6-39c0-0.4-0.3-0.8-0.7-1c-4.6-1.3-10-1.1-14.8-1.4c-6.5-0.3-13-0.5-19.5-0.5
		c-13.9,0-27.8,0.5-41.7,0.8c-6.2,0.2-12.5,0.3-18.7,0.3c-4.6,0-5,0-5.7,4.5c-0.9,5.3-2.1,10.8-2.5,16.1c-0.5,6.2,0.8,12.3,1.7,18.3
		c0.1,0.4,0.6,0.7,1,0.7c16.1,0.4,32.1,1.5,48.2,1.8c17,0.4,34,0.4,51,0.2c1.3,0,1.3-2,0-2c-19.5,0.3-39,0.2-58.4-0.3
		c-9.7-0.3-19.5-0.6-29.2-1.1c-2-0.1-10.1,0.3-10.9-0.8c-0.3-0.5-0.5-4.2-0.6-5c-0.4-2.8-0.8-5.7-0.8-8.6c0-3.9,0.8-7.6,1.4-11.4
		c0.3-1.8,0.5-3.7,0.8-5.5c0.1-0.7,0.2-4.3,0.8-4.9c1.3-1.1,8.6-0.1,10.5-0.1c4.4-0.1,8.7-0.2,13.1-0.3c17.3-0.4,34.7-1.1,52-0.6
		c4.5,0.1,9,0.3,13.4,0.7c1.8,0.1,3.7,0.3,5.5,0.5c0,0,2.4,0.1,2.6,0.4c-0.1-0.1-0.3,3.4-0.3,3.7c0.4,11.5,0.1,23-0.8,34.5
		C119.8,55.6,121.8,55.6,121.9,54.3z"/>
</g>
</svg>
